<?xml version="1.0" encoding="UTF-8"?>
<svg width="879px" height="207px" viewBox="0 0 879 207" version="1.1" xmlns="http://www.w3.org/2000/svg" xmlns:xlink="http://www.w3.org/1999/xlink">
    <!-- Generator: sketchtool 52.5 (67469) - http://www.bohemiancoding.com/sketch -->
    <title>FEA2DA8E-F287-4AA3-A357-029E9C34A4FD1x</title>
    <desc>Created with sketchtool.</desc>
    <defs>
        <polygon id="path-1" points="0 207 878 207 878 0 0 0"/>
    </defs>
    <g id="Page-1" stroke="none" stroke-width="1" fill="none" fill-rule="evenodd">
        <g id="Holding-page" transform="translate(-207.000000, -223.000000)">
            <g id="Logo" transform="translate(207.000000, 223.000000)">
                <path d="M9.82678215,14.1927354 C9.94003997,15.9084415 10,17.6864112 10,19.5162671 C10,23.5391829 9.60026649,29.6029588 8.80079947,37.7075948 C8.00133245,45.8156899 7.60493005,51.9348112 7.60493005,56.0753359 C7.60493005,57.6146287 7.63491006,59.1227897 7.68820786,60.6032781 C7.17854763,62.2601797 6.06595603,63.0557693 4.35709527,62.9969648 C1.90872751,62.8793559 0.569620253,61.7862851 0.339773484,59.7142932 C0.113257828,57.6457604 0,55.4561597 0,53.14895 C0,49.1260342 0.469686875,43.1210628 1.41239174,35.1374947 C2.35176549,27.1470085 2.81812125,21.1766279 2.81812125,17.2090575 C2.81812125,15.6732238 2.76149234,14.1650627 2.65156562,12.6845744 C3.21785476,11.5603718 4.18720853,11 5.5562958,11 C6.63557628,11 7.71818787,11.325154 8.80079947,11.975462 C9.03064624,11.7990486 9.20053298,11.7091124 9.31379081,11.7091124 C9.48367755,11.7091124 9.57028648,12.0065937 9.57028648,12.5946382 C9.51365756,13.3072097 9.51365756,13.7188408 9.57028648,13.8364497 C9.62691539,14.0163221 9.71352432,14.133931 9.82678215,14.1927354" id="Fill-1" fill="#FFDD00"/>
                <path d="M60,3.98693115 C59.4670236,6.10790525 58.459906,7.34945106 56.9821079,7.70122237 C53.1336032,8.64617669 46.4437116,9.88427377 36.915894,11.4155136 C35.7288102,26.1036903 35.1404597,38.3432628 35.1404597,48.1342311 C35.1404597,51.8485223 35.1992948,55.504185 35.3169649,59.1012191 C35.3757999,60.2220591 35.3169649,61.0807949 35.1404597,61.6705292 C34.8428236,62.6120348 34.254473,63.0534733 33.3650255,62.9948447 C31.6484263,62.9362162 30.2260024,62.2119811 29.1012146,60.8255883 C27.9764268,59.4426442 27.3569283,57.8941607 27.2392582,56.1835864 C27.1181272,54.0005351 27.0592922,51.7002266 27.0592922,49.282661 C27.0592922,45.3890353 27.3292412,39.2295886 27.8622176,30.7905258 C28.3917331,22.7135805 28.6305342,16.550685 28.5716991,12.3018394 C26.97277,12.1845823 24.7508815,12.332878 21.9129555,12.7432779 C18.6562622,13.2192038 16.4066867,13.453718 15.1642288,13.453718 C12.2640068,13.453718 9.89676113,12.6812006 8.06249184,11.1327171 C7.35301032,9.58768227 7,8.78757496 7,8.72549767 C7,8.30820033 7.20419224,7.86331308 7.61603761,7.38738718 C9.51260285,6.73212689 13.3887946,6.13894389 19.2515345,5.60438944 C24.3978712,5.06638626 28.242915,4.11453447 30.7901267,2.74883407 C32.8597362,3.45582544 35.2304427,3.80759675 37.8918637,3.80759675 C40.5567455,3.80759675 43.1004963,3.48341534 45.526577,2.83505253 C46.2360585,2.77642398 48.0426407,2.36257537 50.9428627,1.60040419 C53.0747682,1.06584974 54.8502024,0.889964086 56.2691655,1.06584974 C57.3351182,1.06584974 57.7781115,1.50728825 57.6016064,2.39361402 C59.2005355,2.39361402 60,2.92471973 60,3.98693115" id="Fill-3" fill="#FFDD00"/>
                <path d="M62.550251,1.65206593 C62.8489125,2.77699677 63,3.90192761 63,5.02685845 C63,7.10019253 62.3675405,9.73426136 61.1061351,12.9290649 C59.3036255,17.4876308 58.2811493,20.2393847 58.0422202,21.187788 C56.601618,26.3936218 54.5601792,29 51.9143903,29 C51.4330183,29 50.9516464,28.9134669 50.4702744,28.7334779 C49.2088691,28.3215802 48.7591201,27.2831825 49.1210275,25.6286688 C49.4794212,23.9706938 50.7127172,20.0628571 52.8138883,13.9051588 C54.3774687,9.11122274 55.305076,5.02685845 55.6072511,1.65206593 C55.7302293,0.350607483 56.9283887,-0.178975343 59.2157839,0.0529334764 C60.2347465,0.174079875 60.9269383,0.291764947 61.2888457,0.40945002 C61.9494145,0.648281491 62.3675405,1.06017924 62.550251,1.65206593" id="Fill-5" fill="#FFDD00"/>
                <path d="M88.4663895,5.97644518 C88.4663895,7.1549064 87.6070686,8.18519852 85.8884269,9.06732154 C85.4137214,9.30508126 84.9112959,9.3360934 84.3776854,9.15691216 C83.5460845,8.92259823 83.1025641,8.80199547 83.047124,8.80199547 C82.6867637,8.80199547 82.3298683,8.98117671 81.976438,9.3360934 C78.7782398,12.5165604 77.1774082,16.4034149 77.1774082,21.0001029 C77.1774082,22.7092162 77.4442134,24.3011726 77.977824,25.775972 C78.2134442,26.4272269 80.4656965,30.9929027 84.7345807,39.4764452 C87.5758836,45.1344374 89,49.9378729 89,53.8833059 C89,57.1257972 88.1995842,60.2476857 86.5987526,63.255863 C86.0686071,64.255143 84.7345807,65.554207 82.6001386,67.1427175 C80.8814969,68.3797573 79.3395703,69 77.977824,69 C77.4442134,69 76.9417879,68.9138552 76.4670825,68.7346739 C74.6860707,67.9662621 73.8024948,66.9945484 73.8024948,65.8160872 C73.8024948,65.1096997 74.2460152,64.255143 75.1330561,63.255863 C75.3686764,62.9595248 75.9334719,62.7803436 76.8239778,62.7252109 C77.7110187,62.6631866 78.3000693,62.3117157 78.5980596,61.6639066 C79.8454608,59.0692244 80.4656965,56.4194096 80.4656965,53.7110163 C80.4656965,49.8758486 78.5564796,44.324676 74.7311157,37.0471611 C70.9126819,29.7662004 69,23.9497017 69,19.5873277 C69,15.9933656 69.7103257,12.7818864 71.1344421,9.95289035 C72.7318087,6.71384489 75.011781,4.38448879 77.977824,2.97171364 C79.3395703,2.32045875 80.6735967,2 81.976438,2 C84.4677755,2 86.3319473,2.67537544 87.5758836,4.0330179 C88.1683992,4.68082699 88.4663895,5.32863608 88.4663895,5.97644518" id="Fill-7" fill="#FFDD00"/>
                <path d="M135.54251,38.0800834 C135.366483,35.8873728 134.983364,33.4279344 134.393153,30.7052321 C133.799491,28.3358576 133.240344,25.9664832 132.712261,23.5936447 C130.938178,28.5125215 129.405702,33.4279344 128.107929,38.3468112 C129.050195,38.1666833 131.528389,38.0800834 135.54251,38.0800834 M148.468465,55.0502085 C148.823972,55.9993439 149,56.8272393 149,57.5408229 C149,58.7255101 148.499529,59.7612454 147.495136,60.6514929 C146.490743,61.5382763 145.814244,61.953956 145.458737,61.8950681 C142.56636,61.3616124 140.737053,59.0234139 139.970815,54.8770086 C139.142449,50.3738115 138.16912,46.6119099 137.050826,43.5913038 C135.038588,43.7679677 133.033253,43.9446316 131.027918,44.1212955 C128.725752,44.4191993 126.924057,45.1293188 125.626284,46.2551181 C124.973946,48.0945009 124.12142,51.3506588 123.05835,56.0305198 C122.053957,60.3535891 121.080628,63.6409229 120.138362,65.8925215 C119.662051,66.9594328 118.66111,67.2538726 117.125182,66.7827689 C115.178523,66.1315373 114.146517,65.2412899 114.029165,64.1154906 C113.849686,61.8638921 114.498573,58.843286 115.975825,55.0502085 C117.746456,50.7271392 118.719786,47.6476452 118.899265,45.8082624 C118.954489,45.2782707 118.57137,44.6859271 117.746456,44.0346955 C116.91809,43.38 116.507359,42.8777203 116.507359,42.5209285 C116.507359,42.2264887 116.638517,41.9147289 116.907736,41.5891131 C117.173503,41.2634973 117.787874,41.0002335 118.764655,40.7889296 C119.737985,40.5845538 120.283326,40.272794 120.400677,39.8571142 C121.467198,36.8953961 123.14809,31.3841757 125.450256,23.3269169 C127.400367,16.3400334 129.139935,10.9777648 130.672411,7.2470392 C131.027918,6.41567973 131.763092,6 132.884837,6 C133.713203,6 134.451829,6.26672783 135.100715,6.80018349 C136.753995,8.22388657 137.813613,10.3542452 138.289923,13.1981874 C138.641978,15.6299138 138.966422,18.0581762 139.259801,20.4864387 C142.214305,34.4671337 145.282709,45.9883903 148.468465,55.0502085" id="Fill-9" fill="#FFDD00"/>
                <path d="M177.459295,48.9273426 C177.339724,48.9899341 173.819427,51.465776 166.905435,56.3687775 C162.875204,59.2375549 159.295121,61.3552343 156.168703,62.7322474 C155.809991,62.90959 155.447763,63 155.089051,63 C154.241507,63 153.464298,62.4644949 152.743358,61.3934846 C151.656673,59.9643119 151.086954,59.2201684 151.023652,59.1575769 C150.904082,53.920754 151.238176,46.6218887 152.018901,37.2679356 C152.919197,27.3228404 153.369345,20.1456808 153.369345,15.7399341 C153.369345,12.7007687 153.249775,9.84242313 153.010633,7.1614202 C153.794876,6.38945827 154.786608,6 155.989347,6 C158.275255,6 159.597564,6.83455344 159.956276,8.49670571 C160.139149,13.3718887 159.928142,20.6742313 159.326772,30.3967789 C158.725403,40.1193265 158.482745,47.4181918 158.605832,52.2968521 C160.286853,51.5840044 162.484841,50.3321742 165.192763,48.5517936 C168.136308,46.5314788 170.270995,45.192716 171.596821,44.5355051 C171.895747,44.5355051 172.419748,44.4763909 173.172339,44.3581625 C173.92493,44.2364568 174.480581,44.1808199 174.84281,44.1808199 C176.045549,44.1808199 176.917711,44.6537335 177.459295,45.61347 C178.180235,46.9278917 178.180235,48.033675 177.459295,48.9273426" id="Fill-11" fill="#FFDD00"/>
                <path d="M205.459295,48.9273426 C205.339724,48.9899341 201.819427,51.465776 194.905435,56.3687775 C190.875204,59.2375549 187.295121,61.3552343 184.168703,62.7322474 C183.809991,62.90959 183.447763,63 183.089051,63 C182.241507,63 181.464298,62.4644949 180.743358,61.3934846 C179.656673,59.9643119 179.086954,59.2201684 179.023652,59.1575769 C178.904082,53.920754 179.238176,46.6218887 180.018901,37.2679356 C180.919197,27.3228404 181.369345,20.1456808 181.369345,15.7399341 C181.369345,12.7007687 181.249775,9.84242313 181.010633,7.1614202 C181.794876,6.38945827 182.786608,6 183.989347,6 C186.275255,6 187.597564,6.83455344 187.956276,8.49670571 C188.139149,13.3718887 187.928142,20.6742313 187.326772,30.3967789 C186.725403,40.1193265 186.482745,47.4181918 186.605832,52.2968521 C188.286853,51.5840044 190.484841,50.3321742 193.192763,48.5517936 C196.136308,46.5314788 198.270995,45.192716 199.596821,44.5355051 C199.895747,44.5355051 200.419748,44.4763909 201.172339,44.3581625 C201.92493,44.2364568 202.480581,44.1808199 202.84281,44.1808199 C204.045549,44.1808199 204.917711,44.6537335 205.459295,45.61347 C206.180235,46.9278917 206.180235,48.033675 205.459295,48.9273426" id="Fill-13" fill="#FFDD00"/>
                <polygon id="Fill-15" fill="#FBE911" points="347 81 321.737294 109 292 109 317.357166 81"/>
                <polygon id="Fill-17" fill="#FBE911" points="879 81 853.737294 109 824 109 849.357166 81"/>
                <path d="M61.2410717,184.069525 C67.1488216,184.069525 71.7641429,182.404403 75.0870356,179.070684 C78.4099283,175.733488 80.0765721,171.537659 80.0765721,166.472769 C80.0765721,161.039397 78.4411129,157.086906 75.1805894,154.615295 C71.9166009,152.147161 67.3913685,150.913094 61.6083571,150.913094 L28.7432502,150.913094 L28.7432502,184.069525 L61.2410717,184.069525 Z M28.7432502,103.30591 L28.7432502,129.975666 L61.0539641,129.975666 C71.3968575,129.975666 76.5665718,125.533024 76.5665718,116.644264 C76.5665718,111.951333 75.2394936,108.551564 72.5957323,106.451912 C69.948506,104.35226 65.6103811,103.30591 59.5813579,103.30591 L28.7432502,103.30591 Z M4,205 L4,82 L64.3768568,82 C76.4418333,82 85.6135716,84.9965238 91.8920718,90.986095 C98.1671069,96.9756663 101.306357,105.158749 101.306357,115.528389 C101.306357,120.843569 99.88919,125.564311 97.061786,129.701043 C94.2274521,133.841251 90.6585475,136.775203 86.3516073,138.502897 C88.9364644,139.490151 91.3653985,140.755504 93.6453395,142.295481 C95.9218155,143.84241 97.8899105,145.816918 99.5530893,148.22248 C101.212803,150.634994 102.536416,153.475087 103.523929,156.746234 C104.504511,160.020857 105,163.876014 105,168.325608 C105,179.560834 101.243988,188.487833 93.7354283,195.0927 C86.2268688,201.697567 74.7197502,205 59.2071426,205 L4,205 Z" id="Fill-19" fill="#1D1D1B"/>
                <mask id="mask-2" fill="white">
                    <use xlink:href="#path-1"/>
                </mask>
                <g id="Clip-22"/>
                <polygon id="Fill-21" fill="#1D1D1B" mask="url(#mask-2)" points="110 205 134 205 134 81 110 81"/>
                <path d="M198.881124,160.92515 C197.645241,162.159843 195.848858,163.151076 193.50242,163.891892 C191.149019,164.632708 187.75121,165.439606 183.298548,166.302152 C176.370638,167.662053 171.611616,169.394102 169.01452,171.491341 C166.417424,173.595537 165.118876,176.621404 165.118876,180.568944 C165.118876,187.37193 169.01452,190.766466 176.805808,190.766466 C179.897257,190.766466 182.769381,190.241287 185.432623,189.190928 C188.088902,188.14057 190.379638,186.721542 192.294387,184.926889 C194.212618,183.139193 195.758343,181.034997 196.931562,178.628215 C198.108262,176.214477 198.696612,173.654663 198.696612,170.93486 L198.881124,160.92515 Z M200.548697,205.593218 C199.810648,203.245562 199.312813,200.529237 199.069118,197.437287 C196.221364,200.650967 192.447567,203.21426 187.75121,205.130643 C183.04789,207.043548 177.610003,208 171.423622,208 C160.913391,208 153.212618,205.683646 148.328267,201.050938 C143.440435,196.418231 141,190.397797 141,182.982682 C141,176.433592 142.051371,171.2131 144.154114,167.321209 C146.256857,163.429317 149.163794,160.372147 152.874926,158.146221 C156.586058,155.923774 161.003906,154.285631 166.138915,153.235273 C171.266961,152.184914 176.868472,151.228462 182.926042,150.362438 C188.983612,149.499891 193.06725,148.355626 195.173474,146.936599 C197.272735,145.514093 198.324106,143.197739 198.324106,139.984059 C198.324106,137.017318 196.931562,134.700964 194.153435,133.031519 C191.368345,131.365553 187.629362,130.530831 182.926042,130.530831 C177.359344,130.530831 173.373185,131.769002 170.960601,134.238389 C168.551499,136.711253 167.037106,139.984059 166.417424,144.060285 L143.969602,144.060285 C144.091449,139.368452 144.864312,135.045287 146.29167,131.087313 C147.708585,127.132816 149.999321,123.73828 153.149953,120.893269 C156.307549,118.055213 160.415556,115.86059 165.4879,114.316354 C170.556763,112.76864 176.743143,112 184.040078,112 C191.211684,112 197.304067,112.80342 202.313747,114.406782 C207.323427,116.013622 211.340919,118.329976 214.373185,121.355844 C217.398489,124.385189 219.595228,128.151873 220.959922,132.662851 C222.317653,137.173828 223,142.272589 223,147.955655 L223,205.593218 L200.548697,205.593218 Z" id="Fill-23" fill="#1D1D1B" mask="url(#mask-2)"/>
                <polygon id="Fill-24" fill="#1D1D1B" mask="url(#mask-2)" points="289.124388 205 269.053807 164.22301 257.346259 176.214409 257.346259 205 233 205 233 81 257.346259 81 257.346259 148.720413 287.453874 114.214409 317 114.214409 286.334385 147.615806 316.257162 205"/>
                <path d="M368.881124,160.92515 C367.645241,162.159843 365.848858,163.151076 363.50242,163.891892 C361.149019,164.632708 357.75121,165.439606 353.298548,166.302152 C346.370638,167.662053 341.611616,169.394102 339.01452,171.491341 C336.417424,173.595537 335.118876,176.621404 335.118876,180.568944 C335.118876,187.37193 339.01452,190.766466 346.805808,190.766466 C349.897257,190.766466 352.769381,190.241287 355.432623,189.190928 C358.088902,188.14057 360.379638,186.721542 362.294387,184.926889 C364.212618,183.139193 365.758343,181.034997 366.931562,178.628215 C368.108262,176.214477 368.696612,173.654663 368.696612,170.93486 L368.881124,160.92515 Z M370.548697,205.593218 C369.810648,203.245562 369.312813,200.529237 369.069118,197.437287 C366.221364,200.650967 362.447567,203.21426 357.75121,205.130643 C353.04789,207.043548 347.610003,208 341.423622,208 C330.913391,208 323.212618,205.683646 318.328267,201.050938 C313.440435,196.418231 311,190.397797 311,182.982682 C311,176.433592 312.051371,171.2131 314.154114,167.321209 C316.256857,163.429317 319.163794,160.372147 322.874926,158.146221 C326.586058,155.923774 331.003906,154.285631 336.138915,153.235273 C341.266961,152.184914 346.868472,151.228462 352.926042,150.362438 C358.983612,149.499891 363.06725,148.355626 365.173474,146.936599 C367.272735,145.514093 368.324106,143.197739 368.324106,139.984059 C368.324106,137.017318 366.931562,134.700964 364.153435,133.031519 C361.368345,131.365553 357.629362,130.530831 352.926042,130.530831 C347.359344,130.530831 343.373185,131.769002 340.960601,134.238389 C338.551499,136.711253 337.037106,139.984059 336.417424,144.060285 L313.969602,144.060285 C314.091449,139.368452 314.864312,135.045287 316.29167,131.087313 C317.708585,127.132816 319.999321,123.73828 323.149953,120.893269 C326.307549,118.055213 330.415556,115.86059 335.4879,114.316354 C340.556763,112.76864 346.743143,112 354.040078,112 C361.211684,112 367.304067,112.80342 372.313747,114.406782 C377.323427,116.013622 381.340919,118.329976 384.373185,121.355844 C387.398489,124.385189 389.595228,128.151873 390.959922,132.662851 C392.317653,137.173828 393,142.272589 393,147.955655 L393,205.593218 L370.548697,205.593218 Z" id="Fill-25" fill="#1D1D1B" mask="url(#mask-2)"/>
                <path d="M445.924581,188.349132 C451.714922,188.349132 456.551193,185.941483 460.436862,181.119226 C464.319062,176.29697 466.258427,169.996028 466.258427,162.205961 C466.258427,142.433319 459.54177,132.545258 446.108457,132.545258 C432.303923,132.545258 425.40339,141.939264 425.40339,160.727275 C425.40339,168.882664 427.311532,175.528053 431.131283,180.656485 C434.954504,185.788395 439.884447,188.349132 445.924581,188.349132 Z M465.890676,205.592351 L465.703331,194.469152 C460.159314,203.494356 451.714922,208 440.377094,208 C434.579815,208 429.28559,206.890116 424.477075,204.663388 C419.672028,202.44014 415.540035,199.228782 412.091504,195.025834 C408.639503,190.822886 405.929943,185.690976 403.955884,179.637061 C401.985295,173.583146 401,166.722043 401,159.05723 C401,152.136979 401.832643,145.801244 403.49793,140.053504 C405.159748,134.305764 407.59176,129.33042 410.797437,125.127472 C414.003115,120.928004 417.916539,117.681853 422.537709,115.392499 C427.15888,113.110104 432.42535,111.965427 438.344057,111.965427 C449.556988,111.965427 458.556475,116.725056 465.335581,126.237357 L465.335581,81 L489,81 L489,205.592351 L465.890676,205.592351 Z" id="Fill-26" fill="#1D1D1B" mask="url(#mask-2)"/>
                <path d="M559.141365,151.103253 C559.019526,147.767843 558.431218,144.832403 557.379922,142.300413 C556.325144,139.768423 554.93618,137.667705 553.206066,135.998261 C551.472471,134.332295 549.495198,133.097602 547.270767,132.294182 C545.042854,131.490762 542.755762,131.087313 540.40601,131.087313 C535.581186,131.087313 531.410811,132.850663 527.884443,136.370408 C524.361556,139.890153 522.349472,144.801101 521.855154,151.103253 L559.141365,151.103253 Z M521.113676,166.302152 C521.486156,173.22339 523.494758,178.718644 527.146447,182.79487 C530.787692,186.874574 535.581186,188.912687 541.519966,188.912687 C545.474512,188.912687 548.96955,188.018839 552.001601,186.227665 C555.03017,184.43649 556.976112,181.932324 557.84291,178.718644 L582.701544,178.718644 C579.853993,188.112745 574.910811,195.340048 567.861556,200.404029 C560.808819,205.471488 552.398448,208 542.633923,208 C512.212468,208 497,191.448156 497,158.330556 C497,151.291066 497.988636,144.929788 499.96939,139.243243 C501.943182,133.560177 504.822063,128.68053 508.592109,124.600826 C512.362156,120.5246 516.971151,117.408304 522.412132,115.241504 C527.853113,113.081661 534.101713,112 541.147487,112 C555.245999,112 565.912132,116.510977 573.145887,125.525976 C580.383123,134.547931 584,148.136512 584,166.302152 L521.113676,166.302152 Z" id="Fill-27" fill="#1D1D1B" mask="url(#mask-2)"/>
                <path d="M697.546981,205 L697.546981,150.119287 C697.546981,144.5932 696.254432,140.117726 693.669332,136.675585 C691.084233,133.240357 687.636279,131.519287 683.32547,131.519287 C678.896841,131.519287 675.23404,133.361315 672.34053,137.045373 C669.447021,140.725975 668.001999,145.32932 668.001999,150.855407 L668.001999,205 L643.994536,205 L643.994536,150.489075 C643.994536,146.805017 643.748501,143.798328 643.256431,141.462096 C642.760896,139.132776 641.932694,137.290747 640.761429,135.939465 C639.590164,134.591639 638.086232,133.637793 636.242703,133.084838 C634.392243,132.531884 632.177929,132.255407 629.59283,132.255407 C619.865787,132.255407 615.003998,138.147826 615.003998,149.93612 L615.003998,205 L591,205 L591,114.391527 L613.527789,114.391527 L613.527789,127.652062 C616.604958,121.638685 620.295482,117.522631 624.606291,115.31427 C628.913635,113.102453 634.087298,112 640.116887,112 C643.19059,112 645.931627,112.245373 648.336532,112.73612 C650.734506,113.226867 652.886445,114.056299 654.79928,115.220959 C656.705185,116.389075 658.517526,117.892419 660.243236,119.734448 C661.96548,121.573021 663.687725,123.784838 665.4169,126.362988 C667.873784,121.331104 671.141543,117.678149 675.202852,115.404125 C679.267626,113.137012 684.188325,112 689.975343,112 C694.528722,112 698.714781,112.767224 702.530055,114.301672 C706.345329,115.83612 709.606158,117.982274 712.319472,120.747046 C715.025856,123.508361 717.146608,126.732776 718.692123,130.413378 C720.227242,134.097436 721,138.026867 721,142.201672 L721,205 L697.546981,205 Z" id="Fill-28" fill="#1D1D1B" mask="url(#mask-2)"/>
                <path d="M732,205 L756,205 L756,114.214409 L732,114.214409 L732,205 Z M732,103.331081 L756,103.331081 L756,81 L732,81 L732,103.331081 Z" id="Fill-29" fill="#1D1D1B" mask="url(#mask-2)"/>
                <polygon id="Fill-30" fill="#1D1D1B" mask="url(#mask-2)" points="822.124388 205 802.053807 164.22301 790.346259 176.214409 790.346259 205 766 205 766 81 790.346259 81 790.346259 148.720413 820.453874 114.214409 850 114.214409 819.334385 147.615806 849.257162 205"/>
            </g>
        </g>
    </g>
</svg>